<svg version="1" xmlns="http://www.w3.org/2000/svg" width="346.667" height="346.667" viewBox="0 0 260 260"><path d="M5.3 75.2c3 5.7 8 15.4 11.3 21.5l5.8 11.3h16.3l10.1-20.9C54.4 75.6 59 65.9 59 65.6c0-.3-3.1-.6-6.9-.6-6.1 0-7 .3-7.6 2-.3 1.1-3.6 8.2-7.2 15.7l-6.5 13.8-7.9-15.8L15 65H-.2l5.5 10.2zm54.4 11.3L49 108h13.7l1.8-4 1.8-4h26.4l1.8 4 1.8 4h6.9c3.7 0 6.8-.4 6.8-.8 0-.5-5-10.2-11.1-21.5L87.9 65H70.5L59.7 86.5zm23.6-4L87 90h-7.5c-4.1 0-7.5-.2-7.5-.5 0-1.2 6.3-14.5 6.9-14.5.4 0 2.3 3.4 4.4 7.5zm27.7 4V108h12.9l.3-14 .3-13.9L139.2 94l14.6 14H166V65h-13v26.2l-13.7-13.1L125.5 65H111v21.5zm-107 50V158h13v-17h29v17h13v-43H46v16H17v-16H4v21.5z"/><path d="M76 117c-17.3 5.9-19.1 29.8-2.8 38.1 9.3 4.7 31.3 4.7 40.7 0 12.4-6.4 15-23.8 5-33.3-5.4-5.2-11.6-6.8-25.8-6.8-8.7.1-13 .5-17.1 2zm27.3 9.4c5 2.1 7.2 5.2 7.2 10.1 0 4.9-2.2 8-7.2 10.1-3.9 1.7-15 1.8-19 .3-10-3.7-11.1-15.8-1.9-20 5-2.2 16.2-2.5 20.9-.5z"/><path d="M127.7 115.7c-.4.3-.7 10-.7 21.5V158h43v-11h-29v-32h-6.3c-3.5 0-6.7.3-7 .7zM160 120v5h18v33h14v-33h18v-10h-50v5zm52 0v4.9l13.8.3 13.7.3-14.2 12.5c-13.6 11.9-14.3 12.7-14.3 16.2v3.8h49v-9.9l-14.7-.3-14.7-.3 14.8-12.4c14.4-12.1 14.7-12.5 14.4-16l-.3-3.6-23.7-.3-23.8-.2v5zM17.8 166.4c-9.1 2.4-14.4 8.4-15.5 17.4-1.1 9.7 3.9 18.6 12.6 22.5 6.4 2.8 21.6 3.5 30.1 1.3 8.2-2.1 12.5-5 15-10.2 3-6.1 2.8-6.4-4.8-6.4-6.1 0-6.9.3-9.5 2.9-3.5 3.8-10.7 5.4-17.6 4.1-6.4-1.2-8.7-2.7-10.7-6.8-3.4-7.3 1.3-14.4 10.4-15.8 6.6-1 15.1.9 17.9 4.1 2 2.2 3 2.5 9.3 2.5 4.1 0 7-.4 7-1 0-2.8-3.1-8-6.1-10.3-1.9-1.4-5.8-3.2-8.8-4.1-6.6-1.9-22.5-2-29.3-.2zm61.9-.4c-5.6 1.4-9 3.5-12.5 7.4-3.6 4.1-4.6 8.3-4 16.5.5 7.7 4 12.4 11.7 16 5.2 2.4 6.6 2.6 19.1 2.6 11.9 0 14.1-.3 18.5-2.3 6.3-2.9 8.4-4.8 10.6-9.7 2.2-4.8 2.5-14.2.5-18.8-1.8-4.1-6.1-8.1-11.1-10.3-4.7-2-26.5-2.9-32.8-1.4zm22.4 10c5.6 1.6 8.9 5.4 8.9 10.4 0 8.2-5.4 11.9-17 11.9-8.1 0-12.7-1.6-15.4-5.5-2.2-3-2-10 .2-12.7 3.5-4.4 15-6.4 23.3-4.1zm24.9 27v5h14.1l-.3-4.8-.3-4.7-6.7-.3-6.8-.3v5.1z"/></svg>